# xmcd
#
# Track frame offsets: 
#        150
#        33161
#        74190
#        100776
#        150992
#        200159
#
# Disc length: 3041 seconds
#
# Revision: 2
# Processed by: cddbd v1.5.2PL0 Copyright (c) Steve Scherf et al.
# Submitted via: ExactAudioCopy v1.0b3
#
DISCID=4d0bdf06
DTITLE=Pat Metheny - Vol. 20 - Tap: John Zorn's Book of Angels
DYEAR=2013
DGENRE=Jazz
TTITLE0=Mastema
TTITLE1=Albim
TTITLE2=Tharsis
TTITLE3=Sariel
TTITLE4=Phanuel
TTITLE5=Hurmiz
EXTD=YEAR: 2013
EXTT0=
EXTT1=
EXTT2=
EXTT3=
EXTT4=
EXTT5=
PLAYORDER=
